<svg width="38" height="38" viewBox="0 0 38 38" fill="none" xmlns="http://www.w3.org/2000/svg">
<path fill-rule="evenodd" clip-rule="evenodd" d="M6.33335 4.75H31.6667C33.4242 4.75 34.8334 6.15917 34.8334 7.91667V12.6667C34.8334 14.4242 33.4242 15.8333 31.6667 15.8333H28.5V20.5833C28.5 24.0825 25.6659 26.9167 22.1667 26.9167H12.6667C9.16752 26.9167 6.33335 24.0825 6.33335 20.5833V4.75ZM25.3334 20.5833V7.91667H9.50002V20.5833C9.50002 22.325 10.925 23.75 12.6667 23.75H22.1667C23.9084 23.75 25.3334 22.325 25.3334 20.5833ZM28.5 12.6667V7.91667H31.6667V12.6667H28.5ZM3.16669 30.0833H31.6667V33.25H3.16669V30.0833Z" fill="#007E5B"/>
</svg>
