<svg width="38" height="38" viewBox="0 0 38 38" fill="none" xmlns="http://www.w3.org/2000/svg">
<path fill-rule="evenodd" clip-rule="evenodd" d="M19 3.16666C10.2442 3.16666 3.16669 10.2442 3.16669 19C3.16669 27.7558 10.2442 34.8333 19 34.8333C27.7559 34.8333 34.8334 27.7558 34.8334 19C34.8334 10.2442 27.7559 3.16666 19 3.16666ZM23.1009 12.6667L19 16.7675L14.8992 12.6667L12.6667 14.8992L16.7675 19L12.6667 23.1008L14.8992 25.3333L19 21.2325L23.1009 25.3333L25.3334 23.1008L21.2325 19L25.3334 14.8992L23.1009 12.6667ZM6.33335 19C6.33335 25.9825 12.0175 31.6667 19 31.6667C25.9825 31.6667 31.6667 25.9825 31.6667 19C31.6667 12.0175 25.9825 6.33332 19 6.33332C12.0175 6.33332 6.33335 12.0175 6.33335 19Z" fill="#007E5B"/>
</svg>
