<svg width="38" height="38" viewBox="0 0 38 38" fill="none" xmlns="http://www.w3.org/2000/svg">
<path fill-rule="evenodd" clip-rule="evenodd" d="M19.095 3.16666C22.4517 6.52332 24.2408 10.83 24.5258 15.2475C22.4992 16.34 20.6308 17.7333 19 19.4117C17.3692 17.7175 15.5008 16.3242 13.4742 15.2475C13.8383 10.8617 15.7067 6.55499 19.095 3.16666ZM21.1375 13.5692C20.7733 11.6692 20.0767 9.84832 19.0792 8.21749C18.0342 9.86416 17.3058 11.685 16.91 13.585C17.6383 14.06 18.3508 14.5825 19.0158 15.1208C19.6967 14.5667 20.3933 14.0442 21.1375 13.5692ZM19 24.4625C17.7017 22.4833 16.055 20.7575 14.155 19.3958C14.0686 19.336 13.9795 19.2818 13.8899 19.2273L13.8899 19.2273C13.7659 19.1519 13.6411 19.0761 13.5217 18.9842C13.6381 19.0648 13.7597 19.1404 13.8777 19.2137L13.8778 19.2138L13.8778 19.2138C13.9683 19.2701 14.0567 19.325 14.1392 19.38C11.0517 17.1475 7.2675 15.8333 3.16667 15.8333C3.16667 24.2567 8.48667 31.3817 15.8808 34.0258C16.8783 34.39 17.9233 34.6592 19 34.8333C20.0767 34.6433 21.1058 34.3742 22.1192 34.0258C29.5133 31.3817 34.8333 24.2567 34.8333 15.8333C28.215 15.8333 22.4042 19.2692 19 24.4625ZM18.9842 31.6192C19.6967 31.4608 20.3933 31.2708 21.09 31.0333C26.2675 29.1808 30.0675 24.7317 31.255 19.3958C29.45 19.8233 27.7242 20.5833 26.1725 21.6125L26.1883 21.6442L26.1883 21.6442C26.0458 21.7392 25.9033 21.8342 25.7608 21.9133L25.65 21.9925C24.0983 23.1167 22.7367 24.5417 21.6442 26.2042L19 30.2417L16.3558 26.1883C15.295 24.5417 13.9492 23.1325 12.3817 21.9925L12.2708 21.9292C12.065 21.8183 11.8592 21.6758 11.6533 21.5333L11.685 21.5175C10.1492 20.5358 8.48667 19.8233 6.745 19.4117C7.9325 24.7317 11.7483 29.1808 16.9575 31.0492C17.6067 31.2867 18.2875 31.4767 18.9842 31.6192Z" fill="#007E5B"/>
</svg>
