<svg width="38" height="38" viewBox="0 0 38 38" fill="none" xmlns="http://www.w3.org/2000/svg">
<path fill-rule="evenodd" clip-rule="evenodd" d="M31.6667 12.6666H26.9167V6.33331H4.75C3.00833 6.33331 1.58333 7.75831 1.58333 9.49998V26.9166H4.75C4.75 29.545 6.87167 31.6666 9.5 31.6666C12.1283 31.6666 14.25 29.545 14.25 26.9166H23.75C23.75 29.545 25.8717 31.6666 28.5 31.6666C31.1283 31.6666 33.25 29.545 33.25 26.9166H36.4167V19L31.6667 12.6666ZM30.875 15.0416L33.9783 19H26.9167V15.0416H30.875ZM7.91667 26.9166C7.91667 27.7875 8.62917 28.5 9.5 28.5C10.3708 28.5 11.0833 27.7875 11.0833 26.9166C11.0833 26.0458 10.3708 25.3333 9.5 25.3333C8.62917 25.3333 7.91667 26.0458 7.91667 26.9166ZM13.015 23.75C12.1442 22.7841 10.9092 22.1666 9.5 22.1666C8.09083 22.1666 6.85583 22.7841 5.985 23.75H4.75V9.49998H23.75V23.75H13.015ZM26.9167 26.9166C26.9167 27.7875 27.6292 28.5 28.5 28.5C29.3708 28.5 30.0833 27.7875 30.0833 26.9166C30.0833 26.0458 29.3708 25.3333 28.5 25.3333C27.6292 25.3333 26.9167 26.0458 26.9167 26.9166Z" fill="#007E5B"/>
</svg>
